<svg xmlns="http://www.w3.org/2000/svg" width="1024" height="1024" viewBox="0 0 1024 1024" version="1.1"><path d="M 434.009 447.500 C 434.016 448.050, 436.677 458.850, 439.923 471.500 C 448.515 504.991, 458.861 545.037, 459.816 548.500 L 460.644 551.500 470.072 551.500 L 479.500 551.500 481.770 543 C 487.194 522.691, 490.396 510.545, 494.030 496.500 C 496.164 488.250, 498.528 479.475, 499.283 477 L 500.656 472.500 502.201 479 C 504.363 488.095, 517.825 540.387, 519.642 546.750 L 521.142 552 530.532 552 L 539.923 552 540.893 548.250 C 541.427 546.188, 544.175 535.500, 547 524.500 C 549.825 513.500, 555.083 493.025, 558.685 479 C 562.287 464.975, 565.584 452.038, 566.012 450.250 L 566.789 447 558.395 447 C 553.778 447, 550 447.219, 550 447.487 C 550 447.756, 548.875 452.307, 547.499 457.601 C 546.123 462.895, 544.813 468.188, 544.586 469.363 C 544.360 470.538, 541.470 482.525, 538.165 496 C 534.860 509.475, 531.824 522.075, 531.418 524 C 530.710 527.359, 530.611 527.199, 528.977 520 C 527.057 511.540, 516.934 472.175, 513.934 461.500 C 512.852 457.650, 511.506 452.813, 510.943 450.750 L 509.920 447 500.606 447 L 491.292 447 484.166 474.766 C 472.780 519.134, 471.255 524.587, 470.680 523 C 470.382 522.175, 469.177 517.225, 468.004 512 C 466.831 506.775, 464.594 497.100, 463.034 490.500 C 461.474 483.900, 458.549 471.443, 456.534 462.817 L 452.870 447.134 443.433 446.817 C 437.591 446.621, 434.001 446.881, 434.009 447.500 M 677.293 446.750 L 640.086 447.024 639.577 450.262 C 639.296 452.043, 638.929 455.401, 638.759 457.725 L 638.452 461.950 653.240 462.225 L 668.029 462.500 668.265 507 L 668.500 551.500 677.750 551.788 L 687 552.075 687 507.038 L 687 462 701 462 L 715 462 715 454 C 715 449.600, 714.888 446.107, 714.750 446.237 C 714.612 446.368, 697.757 446.599, 677.293 446.750 M 943 457.110 C 943 460.746, 942.721 465.758, 942.379 468.249 L 941.759 472.777 936.834 472.442 C 931.254 472.062, 930.807 472.611, 929.666 481.250 L 929.038 486 935.519 486 L 942 486 942.006 511.750 C 942.009 526.377, 942.457 539.106, 943.044 541.219 C 945.280 549.269, 951.298 553, 962.050 553 C 968.597 553, 979 550.204, 979 548.445 C 979 547.734, 978.466 544.838, 977.813 542.009 C 976.774 537.508, 976.367 536.940, 974.563 537.469 C 973.428 537.801, 970.250 538.333, 967.500 538.650 C 963.413 539.122, 962.044 538.858, 960 537.203 L 957.500 535.180 957.186 510.590 L 956.871 486 965.936 486 C 974.795 486, 975 485.947, 975 483.640 C 975 482.341, 975.292 479.149, 975.649 476.546 L 976.297 471.813 966.899 472.157 L 957.500 472.500 957.346 461.652 L 957.192 450.805 950.096 450.652 L 942.999 450.500 943 457.110 M 592.505 473.179 C 588.105 474.758, 585.022 476.818, 580.918 480.922 C 573.435 488.405, 570.911 494.982, 570.239 508.746 C 568.816 537.871, 580.541 552.702, 605.161 552.922 C 615.607 553.016, 622.891 550.608, 629.342 544.931 C 633.862 540.951, 637.992 533.494, 636.417 532.153 C 635.913 531.724, 632.818 530.561, 629.539 529.569 C 625.261 528.274, 623.470 528.091, 623.194 528.919 C 622.283 531.650, 617.275 536.424, 613.541 538.120 C 602.165 543.288, 589.851 535.977, 588.332 523.155 L 587.721 518 613.315 518 L 638.909 518 639.545 514.614 C 640.647 508.739, 638.300 494.238, 635.162 487.532 C 630.150 476.822, 621.901 472.014, 607.500 471.407 C 600.152 471.098, 597.400 471.423, 592.505 473.179 M 754.860 472.568 C 749.829 474.117, 741.394 481.015, 738.980 485.555 C 737.542 488.260, 737.486 488.114, 737 480.427 L 736.500 472.516 729 472.508 L 721.500 472.500 721.238 512.289 L 720.977 552.078 729.560 551.789 L 738.142 551.500 738.039 527.277 L 737.936 503.054 740.547 499.108 C 745.068 492.277, 752.776 488, 760.565 488 L 765 488 765 479.500 L 765 471 762.250 471.070 C 760.737 471.108, 757.412 471.782, 754.860 472.568 M 797 472.353 C 785.979 475.667, 779.681 480.863, 775.562 490.042 C 771.438 499.230, 770.041 513.566, 772.235 524.175 C 775.042 537.753, 779.702 544.495, 789.824 549.624 C 795.098 552.296, 796.315 552.500, 807 552.500 C 818.161 552.500, 818.683 552.401, 824.709 549.132 C 829.260 546.664, 831.889 544.355, 834.553 540.488 C 836.552 537.585, 838.033 534.413, 837.844 533.438 C 837.619 532.279, 835.444 530.980, 831.555 529.684 L 825.609 527.703 824.067 530.102 C 821.257 534.473, 816.871 537.958, 812.797 539.055 C 801.789 542.019, 791.167 534.605, 789.460 522.767 L 788.778 518.034 814.639 517.767 L 840.500 517.500 840.350 507 C 840.236 498.985, 839.696 495.164, 838.067 490.853 C 835.236 483.361, 829.361 476.832, 822.980 474.087 C 816.501 471.299, 803.411 470.426, 797 472.353 M 872.372 472.784 C 869.552 473.788, 866.063 475.384, 864.620 476.329 C 861.044 478.672, 857.294 484.619, 856.155 489.750 L 855.213 494 862.887 494 C 870.433 494, 870.580 493.952, 871.654 491.106 C 872.255 489.515, 873.912 487.448, 875.337 486.515 C 878.690 484.318, 888.698 483.415, 893.207 484.903 C 899.018 486.821, 901.145 489.942, 901.747 497.431 L 902.274 504 893.887 504.004 C 883.066 504.009, 869.405 506.243, 864.315 508.839 C 855.478 513.348, 851.274 521.644, 852.387 532.379 C 853.757 545.598, 863.669 553, 880 553 C 888.400 553, 895.187 550.988, 900.096 547.043 L 903.916 543.973 904.996 547.987 L 906.077 552 913.980 552 C 918.326 552, 922.154 551.560, 922.487 551.021 C 922.819 550.483, 922.140 548.756, 920.977 547.182 C 917.650 542.683, 917.049 537.927, 917.024 515.886 C 917.011 504.549, 916.542 492.860, 915.983 489.910 C 914.491 482.045, 910.950 477.330, 904.177 474.194 C 896.568 470.670, 880.330 469.950, 872.372 472.784 M 598.316 485.943 C 593.148 488.290, 589.247 493.916, 588.375 500.283 L 587.728 505 605.364 505 C 625.111 505, 624.073 505.471, 621.896 497.500 C 618.788 486.121, 608.755 481.204, 598.316 485.943 M 798.559 486.266 C 794.273 488.695, 790.576 494.768, 789.437 501.250 L 788.777 505 806.502 505 L 824.227 505 823.525 500.250 C 821.513 486.651, 809.628 479.994, 798.559 486.266 M 884.698 516.128 C 873.174 517.610, 870 520.251, 870 528.358 C 870 534.703, 873.363 538.490, 880.393 540.064 C 884.972 541.088, 886.469 541.005, 891.094 539.469 C 894.051 538.487, 897.715 536.439, 899.236 534.918 C 901.825 532.329, 902 531.611, 902 523.577 L 902 515 896.750 515.126 C 893.862 515.196, 888.439 515.647, 884.698 516.128" stroke="none" fill="#003f78" fill-rule="evenodd"/><path d="M 119 337.872 C 81.113 346.161, 52.202 374.622, 41.857 413.813 C 38.964 424.771, 38.265 445.591, 40.381 457.724 C 42.462 469.647, 47.233 484.490, 52.109 494.204 L 55.976 501.908 92.738 502.204 L 129.500 502.500 134.479 504.968 C 139.582 507.497, 146.154 513.447, 151.576 520.446 L 154.633 524.391 159.190 513.446 C 161.697 507.426, 171.496 483.375, 180.966 460 C 190.435 436.625, 198.823 416.835, 199.605 416.023 C 201.539 414.012, 208.549 414.121, 210.622 416.194 C 212.540 418.111, 213.151 420.315, 229.025 482.500 C 246.054 549.210, 248.406 557.989, 249.250 557.995 C 249.662 557.998, 250 557.563, 250 557.029 C 250 555.889, 266.222 517.347, 269.163 511.500 C 271.586 506.682, 276.408 501.435, 280.500 499.165 C 283.176 497.680, 289.350 497.469, 337.628 497.210 L 391.757 496.920 395.888 486.546 C 402.981 468.739, 404.181 462.732, 404.588 443 C 405.060 420.049, 402.610 408.186, 393.848 391 C 376.647 357.264, 341.771 335.969, 303.792 336.013 C 274.797 336.047, 248.558 347.456, 227.093 369.362 L 221.686 374.881 211.905 365.653 C 197.789 352.337, 182.196 343.601, 163.248 338.394 C 154.026 335.859, 129.519 335.570, 119 337.872 M 200.553 459.590 C 196.407 470.649, 168.714 540.739, 167.307 543.734 C 165.634 547.294, 160.453 551, 157.148 551 C 154.055 551, 149.983 546.914, 140.206 534 C 134.501 526.464, 130.293 521.897, 128 520.752 C 124.907 519.206, 121.090 519.003, 95.163 519.002 L 65.827 519 68.948 523.250 C 82.179 541.271, 114.504 575.946, 142.500 602.148 C 163.378 621.689, 209.105 659.740, 215.833 663.170 C 220.104 665.347, 223.900 665.491, 228.282 663.642 C 231.655 662.219, 257.785 641.816, 267.822 632.768 C 271.036 629.871, 277.449 624.125, 282.072 620 C 314.124 591.402, 338.129 568.043, 353.726 550.274 C 361.077 541.899, 374.640 525.135, 378.825 519.250 L 381.136 516 334.190 516 L 287.245 516 270.913 553.638 C 255.274 589.682, 254.439 591.336, 251.198 592.691 C 247.051 594.423, 243.406 593.424, 240.712 589.816 C 239.661 588.409, 235.973 576.962, 232.515 564.379 C 229.057 551.796, 220.985 522.375, 214.577 499 C 208.170 475.625, 202.807 456.091, 202.661 455.590 C 202.514 455.090, 201.565 456.890, 200.553 459.590" stroke="none" fill="#dc2323" fill-rule="evenodd"/><path d="M 0 512.001 L 0 1024.002 512.250 1023.751 L 1024.500 1023.500 1024.751 511.750 L 1025.002 0 512.501 0 L 0 0 0 512.001 M 0.496 512.500 C 0.496 794.100, 0.610 909.151, 0.750 768.168 C 0.890 627.186, 0.890 396.786, 0.750 256.168 C 0.610 115.551, 0.496 230.900, 0.496 512.500 M 119 337.872 C 81.113 346.161, 52.202 374.622, 41.857 413.813 C 38.964 424.771, 38.265 445.591, 40.381 457.724 C 42.462 469.647, 47.233 484.490, 52.109 494.204 L 55.976 501.908 92.738 502.204 L 129.500 502.500 134.479 504.968 C 139.582 507.497, 146.154 513.447, 151.576 520.446 L 154.633 524.391 159.190 513.446 C 161.697 507.426, 171.496 483.375, 180.966 460 C 190.435 436.625, 198.823 416.835, 199.605 416.023 C 201.539 414.012, 208.549 414.121, 210.622 416.194 C 212.540 418.111, 213.151 420.315, 229.025 482.500 C 246.054 549.210, 248.406 557.989, 249.250 557.995 C 249.662 557.998, 250 557.563, 250 557.029 C 250 555.889, 266.222 517.347, 269.163 511.500 C 271.586 506.682, 276.408 501.435, 280.500 499.165 C 283.176 497.680, 289.350 497.469, 337.628 497.210 L 391.757 496.920 395.888 486.546 C 402.981 468.739, 404.181 462.732, 404.588 443 C 405.060 420.049, 402.610 408.186, 393.848 391 C 376.647 357.264, 341.771 335.969, 303.792 336.013 C 274.797 336.047, 248.558 347.456, 227.093 369.362 L 221.686 374.881 211.905 365.653 C 197.789 352.337, 182.196 343.601, 163.248 338.394 C 154.026 335.859, 129.519 335.570, 119 337.872 M 434.009 447.500 C 434.016 448.050, 436.677 458.850, 439.923 471.500 C 448.515 504.991, 458.861 545.037, 459.816 548.500 L 460.644 551.500 470.072 551.500 L 479.500 551.500 481.770 543 C 487.194 522.691, 490.396 510.545, 494.030 496.500 C 496.164 488.250, 498.528 479.475, 499.283 477 L 500.656 472.500 502.201 479 C 504.363 488.095, 517.825 540.387, 519.642 546.750 L 521.142 552 530.532 552 L 539.923 552 540.893 548.250 C 541.427 546.188, 544.175 535.500, 547 524.500 C 549.825 513.500, 555.083 493.025, 558.685 479 C 562.287 464.975, 565.584 452.038, 566.012 450.250 L 566.789 447 558.395 447 C 553.778 447, 550 447.219, 550 447.487 C 550 447.756, 548.875 452.307, 547.499 457.601 C 546.123 462.895, 544.813 468.188, 544.586 469.363 C 544.360 470.538, 541.470 482.525, 538.165 496 C 534.860 509.475, 531.824 522.075, 531.418 524 C 530.710 527.359, 530.611 527.199, 528.977 520 C 527.057 511.540, 516.934 472.175, 513.934 461.500 C 512.852 457.650, 511.506 452.813, 510.943 450.750 L 509.920 447 500.606 447 L 491.292 447 484.166 474.766 C 472.780 519.134, 471.255 524.587, 470.680 523 C 470.382 522.175, 469.177 517.225, 468.004 512 C 466.831 506.775, 464.594 497.100, 463.034 490.500 C 461.474 483.900, 458.549 471.443, 456.534 462.817 L 452.870 447.134 443.433 446.817 C 437.591 446.621, 434.001 446.881, 434.009 447.500 M 677.293 446.750 L 640.086 447.024 639.577 450.262 C 639.296 452.043, 638.929 455.401, 638.759 457.725 L 638.452 461.950 653.240 462.225 L 668.029 462.500 668.265 507 L 668.500 551.500 677.750 551.788 L 687 552.075 687 507.038 L 687 462 701 462 L 715 462 715 454 C 715 449.600, 714.888 446.107, 714.750 446.237 C 714.612 446.368, 697.757 446.599, 677.293 446.750 M 943 457.110 C 943 460.746, 942.721 465.758, 942.379 468.249 L 941.759 472.777 936.834 472.442 C 931.254 472.062, 930.807 472.611, 929.666 481.250 L 929.038 486 935.519 486 L 942 486 942.006 511.750 C 942.009 526.377, 942.457 539.106, 943.044 541.219 C 945.280 549.269, 951.298 553, 962.050 553 C 968.597 553, 979 550.204, 979 548.445 C 979 547.734, 978.466 544.838, 977.813 542.009 C 976.774 537.508, 976.367 536.940, 974.563 537.469 C 973.428 537.801, 970.250 538.333, 967.500 538.650 C 963.413 539.122, 962.044 538.858, 960 537.203 L 957.500 535.180 957.186 510.590 L 956.871 486 965.936 486 C 974.795 486, 975 485.947, 975 483.640 C 975 482.341, 975.292 479.149, 975.649 476.546 L 976.297 471.813 966.899 472.157 L 957.500 472.500 957.346 461.652 L 957.192 450.805 950.096 450.652 L 942.999 450.500 943 457.110 M 200.553 459.590 C 196.407 470.649, 168.714 540.739, 167.307 543.734 C 165.634 547.294, 160.453 551, 157.148 551 C 154.055 551, 149.983 546.914, 140.206 534 C 134.501 526.464, 130.293 521.897, 128 520.752 C 124.907 519.206, 121.090 519.003, 95.163 519.002 L 65.827 519 68.948 523.250 C 82.179 541.271, 114.504 575.946, 142.500 602.148 C 163.378 621.689, 209.105 659.740, 215.833 663.170 C 220.104 665.347, 223.900 665.491, 228.282 663.642 C 231.655 662.219, 257.785 641.816, 267.822 632.768 C 271.036 629.871, 277.449 624.125, 282.072 620 C 314.124 591.402, 338.129 568.043, 353.726 550.274 C 361.077 541.899, 374.640 525.135, 378.825 519.250 L 381.136 516 334.190 516 L 287.245 516 270.913 553.638 C 255.274 589.682, 254.439 591.336, 251.198 592.691 C 247.051 594.423, 243.406 593.424, 240.712 589.816 C 239.661 588.409, 235.973 576.962, 232.515 564.379 C 229.057 551.796, 220.985 522.375, 214.577 499 C 208.170 475.625, 202.807 456.091, 202.661 455.590 C 202.514 455.090, 201.565 456.890, 200.553 459.590 M 592.505 473.179 C 588.105 474.758, 585.022 476.818, 580.918 480.922 C 573.435 488.405, 570.911 494.982, 570.239 508.746 C 568.816 537.871, 580.541 552.702, 605.161 552.922 C 615.607 553.016, 622.891 550.608, 629.342 544.931 C 633.862 540.951, 637.992 533.494, 636.417 532.153 C 635.913 531.724, 632.818 530.561, 629.539 529.569 C 625.261 528.274, 623.470 528.091, 623.194 528.919 C 622.283 531.650, 617.275 536.424, 613.541 538.120 C 602.165 543.288, 589.851 535.977, 588.332 523.155 L 587.721 518 613.315 518 L 638.909 518 639.545 514.614 C 640.647 508.739, 638.300 494.238, 635.162 487.532 C 630.150 476.822, 621.901 472.014, 607.500 471.407 C 600.152 471.098, 597.400 471.423, 592.505 473.179 M 754.860 472.568 C 749.829 474.117, 741.394 481.015, 738.980 485.555 C 737.542 488.260, 737.486 488.114, 737 480.427 L 736.500 472.516 729 472.508 L 721.500 472.500 721.238 512.289 L 720.977 552.078 729.560 551.789 L 738.142 551.500 738.039 527.277 L 737.936 503.054 740.547 499.108 C 745.068 492.277, 752.776 488, 760.565 488 L 765 488 765 479.500 L 765 471 762.250 471.070 C 760.737 471.108, 757.412 471.782, 754.860 472.568 M 797 472.353 C 785.979 475.667, 779.681 480.863, 775.562 490.042 C 771.438 499.230, 770.041 513.566, 772.235 524.175 C 775.042 537.753, 779.702 544.495, 789.824 549.624 C 795.098 552.296, 796.315 552.500, 807 552.500 C 818.161 552.500, 818.683 552.401, 824.709 549.132 C 829.260 546.664, 831.889 544.355, 834.553 540.488 C 836.552 537.585, 838.033 534.413, 837.844 533.438 C 837.619 532.279, 835.444 530.980, 831.555 529.684 L 825.609 527.703 824.067 530.102 C 821.257 534.473, 816.871 537.958, 812.797 539.055 C 801.789 542.019, 791.167 534.605, 789.460 522.767 L 788.778 518.034 814.639 517.767 L 840.500 517.500 840.350 507 C 840.236 498.985, 839.696 495.164, 838.067 490.853 C 835.236 483.361, 829.361 476.832, 822.980 474.087 C 816.501 471.299, 803.411 470.426, 797 472.353 M 872.372 472.784 C 869.552 473.788, 866.063 475.384, 864.620 476.329 C 861.044 478.672, 857.294 484.619, 856.155 489.750 L 855.213 494 862.887 494 C 870.433 494, 870.580 493.952, 871.654 491.106 C 872.255 489.515, 873.912 487.448, 875.337 486.515 C 878.690 484.318, 888.698 483.415, 893.207 484.903 C 899.018 486.821, 901.145 489.942, 901.747 497.431 L 902.274 504 893.887 504.004 C 883.066 504.009, 869.405 506.243, 864.315 508.839 C 855.478 513.348, 851.274 521.644, 852.387 532.379 C 853.757 545.598, 863.669 553, 880 553 C 888.400 553, 895.187 550.988, 900.096 547.043 L 903.916 543.973 904.996 547.987 L 906.077 552 913.980 552 C 918.326 552, 922.154 551.560, 922.487 551.021 C 922.819 550.483, 922.140 548.756, 920.977 547.182 C 917.650 542.683, 917.049 537.927, 917.024 515.886 C 917.011 504.549, 916.542 492.860, 915.983 489.910 C 914.491 482.045, 910.950 477.330, 904.177 474.194 C 896.568 470.670, 880.330 469.950, 872.372 472.784 M 598.316 485.943 C 593.148 488.290, 589.247 493.916, 588.375 500.283 L 587.728 505 605.364 505 C 625.111 505, 624.073 505.471, 621.896 497.500 C 618.788 486.121, 608.755 481.204, 598.316 485.943 M 798.559 486.266 C 794.273 488.695, 790.576 494.768, 789.437 501.250 L 788.777 505 806.502 505 L 824.227 505 823.525 500.250 C 821.513 486.651, 809.628 479.994, 798.559 486.266 M 884.698 516.128 C 873.174 517.610, 870 520.251, 870 528.358 C 870 534.703, 873.363 538.490, 880.393 540.064 C 884.972 541.088, 886.469 541.005, 891.094 539.469 C 894.051 538.487, 897.715 536.439, 899.236 534.918 C 901.825 532.329, 902 531.611, 902 523.577 L 902 515 896.750 515.126 C 893.862 515.196, 888.439 515.647, 884.698 516.128" stroke="none" fill="#fbfbfb" fill-rule="evenodd"/></svg>